<svg height="57" viewBox="0 0 256 57" width="256" xmlns="http://www.w3.org/2000/svg" xmlns:xlink="http://www.w3.org/1999/xlink"><clipPath id="a"><path d="m0 0h256v57h-256z"/></clipPath><g clip-path="url(#a)"><path d="m-1.307 0 244.335.026c1.3 0 1.362 1.008 1.255 1.639 0 0-6.445 40.194-8.976 53.855a1.259 1.259 0 0 1 -1.149.788l-244.589-.008c-1.644 0-1.2-1.828-1.2-1.828l8.881-53.251a1.471 1.471 0 0 1 1.443-1.221z" fill="#008ad0" transform="translate(11.682 .181)"/><path d="m26.995-37.826h-18.895l-5.185 29.426h6.507l2.114-12.061h11.521l.953-5.3h-11.521l1.2-6.756h12.352zm23.333 29.426h6.424l-3.352-29.426h-7.631l-13.055 29.426h6.341l2.694-6.383h8.165zm-1.657-24.246h.166c0 3.481.332 7.377.746 12.931h-5.762c2.238-5.346 3.731-9.449 4.85-12.931zm44.1 2.9c0-5.637-4.186-8.082-9.45-8.082h-10.281l-5.18 29.428h6.548l2.072-11.812h3.44l2.943 11.812h7.087l-3.523-12.765c4.103-1.492 6.341-4.725 6.341-8.58zm-14.053-3.314h3.233c2.114 0 3.937.87 3.937 3.606 0 2.487-1.7 4.932-5.554 4.932h-3.108zm46.582-4.766h-18.316l-5.184 29.426h18.609l.912-5.181h-12.1l1.285-7.336h11.107l.912-5.056h-11.106l1.16-6.673h11.812zm24.618 0h-10.69l-5.18 29.426h11.4c7.087 0 11.273-3.73 11.273-8.869 0-3.523-1.948-5.678-4.973-6.175 4.1-.829 6.631-3.813 6.631-7.667-.003-4.021-2.863-6.715-8.458-6.715zm-5.012 4.726h3.194c2.238 0 3.647 1.16 3.647 3.316 0 2.528-1.906 4.227-5.1 4.227h-3.067zm-2.072 11.77h3.606c2.155 0 3.854 1.119 3.854 3.647 0 2.652-1.658 4.559-5.1 4.559h-3.813zm34.938 13.63c8 0 11.315-5.139 12.641-12.516l.746-4.393c1.492-8.579-1.782-13.926-9.7-13.926-8 0-11.315 5.139-12.641 12.516l-.746 4.393c-1.49 8.584 1.784 13.926 9.7 13.926zm.373-5.139c-3.4 0-4.476-2.777-3.564-8.04l.829-4.766c.912-5.222 2.487-7.75 5.678-7.75 3.4 0 4.476 2.777 3.564 8.04l-.829 4.766c-.911 5.226-2.486 7.754-5.678 7.754zm19.77 4.439h7.129l5.885-9.325a14.258 14.258 0 0 0 1.119-2.114h.166a13.022 13.022 0 0 0 .373 2.114l2.652 9.325h7l-5.512-15.459 9.573-13.967h-7.046l-4.683 7.709a15.564 15.564 0 0 0 -1.119 2.2h-.207a12.613 12.613 0 0 0 -.373-2.238l-2.031-7.667h-6.838l4.808 13.843z" fill="#fff" transform="translate(15.697 51.591)"/></g></svg>