<svg width="103" height="32" viewBox="0 0 103 32" fill="none" xmlns="http://www.w3.org/2000/svg">
<g clip-path="url(#clip0_3246_173)">
<path d="M25.9961 31.9303C31.0041 28.9269 34.3576 23.4472 34.3576 17.1825H34.3612C34.3612 7.61228 26.5378 -0.130122 16.9362 0.00254198C7.50422 0.133363 -0.116573 7.9679 0.00135033 17.3999C0.0768949 23.5319 3.36585 28.8901 8.26151 31.8695C8.58211 32.0648 8.99116 31.8381 8.99116 31.4641V17.317C8.99116 12.8267 12.5491 9.06975 17.0394 8.9942C21.6255 8.91866 25.3678 12.613 25.3678 17.1825C25.3678 20.7755 23.0535 23.8267 19.8346 24.9304C19.5066 25.0428 19.4034 25.4556 19.6411 25.708L25.4065 31.8455C25.5594 32.0077 25.8044 32.0445 25.9961 31.9303Z" fill="#DE3341"/>
<path d="M73.0751 10.2324C73.2207 10.2324 73.3275 10.3724 73.2888 10.5125H73.2851C72.6089 12.9115 70.4237 14.6766 67.8183 14.7153C64.6804 14.7614 62.0051 12.1689 61.959 9.0292C61.9129 5.80105 64.5146 3.1699 67.7317 3.1699C70.3573 3.1699 72.5721 4.92217 73.2723 7.31933C73.2723 7.31933 73.2888 7.38196 73.3091 7.46303C73.3441 7.60307 73.2391 7.73941 73.0954 7.73941H70.9119C70.8124 7.73941 70.7222 7.68046 70.6798 7.59018C70.1675 6.47544 69.0399 5.69972 67.7317 5.69972C65.9407 5.69972 64.4888 7.15165 64.4888 8.94261C64.4888 10.7336 65.9407 12.1855 67.7317 12.1855C69.0086 12.1855 70.1123 11.4466 70.6411 10.3743C70.6853 10.2877 70.7738 10.2324 70.8714 10.2324H73.0751Z" fill="#DE3341"/>
<path fill-rule="evenodd" clip-rule="evenodd" d="M55.4548 3.1699C52.1806 3.1091 49.5126 5.7771 49.5734 9.05131C49.6305 12.1376 52.1492 14.6564 55.2355 14.7135C58.5097 14.7743 61.1777 12.1081 61.1169 8.83206C61.0598 5.74578 58.541 3.22702 55.4548 3.1699ZM55.4511 12.1836C53.5754 12.2426 52.0442 10.7115 52.1032 8.83575C52.1585 7.13691 53.5404 5.75315 55.2392 5.69972C57.1149 5.64076 58.6461 7.17193 58.5871 9.04764C58.5318 10.7465 57.1499 12.1302 55.4511 12.1836Z" fill="#DE3341"/>
<path fill-rule="evenodd" clip-rule="evenodd" d="M38.612 0.221817V14.286L38.6102 14.2879C38.6102 14.4095 38.7097 14.5089 38.8313 14.5089H41.2266C41.3482 14.5089 41.4477 14.4095 41.4477 14.2879V8.94445H41.5859L46.605 14.4242C46.6529 14.4758 46.7229 14.5071 46.7948 14.5071H49.6452C49.8387 14.5071 49.9382 14.2768 49.8055 14.1349L44.9246 8.94261C47.8192 8.72703 49.3375 6.83842 49.3375 4.47811C49.3375 1.06754 46.5018 -0.00667258 44.9762 0.000697625H38.8331C38.7115 0.000697625 38.612 0.100209 38.612 0.221817ZM43.9038 6.6947H41.4495V2.49183H44.1968C44.9872 2.49183 45.5898 2.67793 46.0062 3.04275C46.4207 3.40942 46.629 3.8885 46.629 4.5555C46.629 5.22251 46.4005 5.74577 45.9435 6.12534C45.4847 6.50306 44.8048 6.6947 43.9038 6.6947Z" fill="#DE3341"/>
<path d="M99.4015 10.5162C99.4015 12.4766 101.017 12.4748 101.754 12.3034H101.756C101.894 12.2721 102.025 12.3771 102.025 12.519V14.3192C102.025 14.4224 101.953 14.5126 101.852 14.5347C101.81 14.5441 101.767 14.5539 101.722 14.5641C101.416 14.6342 101.052 14.7172 100.594 14.7172C99.4752 14.7172 96.575 14.1423 96.575 10.7207V5.55415H95.0457C94.9241 5.55415 94.8246 5.45466 94.8246 5.33305V3.58447C94.8246 3.46287 94.9241 3.36335 95.0457 3.36335H96.5787V1.70506C96.5787 1.62767 96.6174 1.55765 96.6819 1.51711L99.0643 0.0320291C99.2117 -0.0582559 99.4015 0.0467731 99.4015 0.219973V3.36335H101.804C101.926 3.36335 102.025 3.46287 102.025 3.58447V5.33305C102.025 5.45466 101.926 5.55415 101.804 5.55415H99.4015V10.5162Z" fill="#DE3341"/>
<path d="M83.9314 3.72635L79.524 8.94261V8.94445L84.3755 14.1349C84.5063 14.2768 84.4068 14.5071 84.2133 14.5071H81.2652C81.2247 14.5071 81.1842 14.4905 81.1565 14.4592L77.1748 10.061H77.044V14.286C77.044 14.4076 76.9445 14.5071 76.8228 14.5071H74.4404C74.3188 14.5071 74.2193 14.4076 74.2193 14.286V1.70875C74.2193 1.63136 74.258 1.56134 74.3225 1.5208L76.7049 0.0320291C76.8505 -0.0600985 77.0421 0.0467731 77.0421 0.219973V7.76706H77.2024L80.8101 3.45548C80.858 3.39652 80.9317 3.36335 81.0073 3.36335H83.7619C83.9498 3.36335 84.053 3.58264 83.9314 3.72635Z" fill="#DE3341"/>
<path fill-rule="evenodd" clip-rule="evenodd" d="M94.7583 9.26505C94.9701 7.57175 94.2368 6.2451 94.0286 5.89502H94.0249C93.1349 4.40439 91.3993 3.1699 89.109 3.1699C88.0643 3.1699 87.0803 3.43153 86.183 3.94376C85.1033 4.56102 84.4934 5.35884 84.3515 5.55046C83.3031 6.97107 83.2368 8.47276 83.2331 8.94261C83.2331 11.3969 84.6334 13.092 86.1627 13.9543C87.0582 14.4592 88.0587 14.7172 89.1348 14.7172C89.9621 14.7172 90.7415 14.555 91.4527 14.2363C92.7664 13.6485 93.6988 12.6885 94.2036 11.7249C94.281 11.5775 94.1723 11.4024 94.0065 11.4024H91.6941C91.6204 11.4024 91.5504 11.4356 91.5006 11.4908C91.1026 11.9423 90.2422 12.425 89.1127 12.425C86.7671 12.425 86.1406 10.6138 85.9951 10.0629H94.4229C94.5242 10.0629 94.6108 9.99656 94.6366 9.8989C94.6809 9.7257 94.7269 9.51195 94.7583 9.26505ZM89.1145 5.43991C91.4103 5.43991 92.046 7.54965 92.1363 7.98633H85.9509C86.2917 6.49387 87.506 5.43991 89.1145 5.43991Z" fill="#DE3341"/>
<path d="M49.4465 26.6931H51.807C51.9563 26.6931 52.0594 26.8368 52.0171 26.9805C51.772 27.8061 51.374 28.58 50.8212 29.3042C50.2039 30.1131 49.417 30.7636 48.457 31.2574C47.497 31.7513 46.4208 31.9982 45.2286 31.9982C43.9001 31.9982 42.6728 31.6683 41.5488 31.0105C40.4248 30.3527 39.5366 29.4516 38.8861 28.3073C38.2356 27.163 37.9095 25.9044 37.9095 24.5353C37.9095 23.1662 38.2356 21.9076 38.8861 20.7633C39.5366 19.619 40.4248 18.718 41.5488 18.0601C42.6728 17.4023 43.8982 17.0725 45.2286 17.0725C46.3803 17.0725 47.4288 17.3194 48.3741 17.8132C49.3194 18.3052 50.1007 18.9612 50.718 19.7757C51.2708 20.5072 51.6688 21.2848 51.9139 22.1085C51.9563 22.2522 51.8512 22.3978 51.702 22.3978H49.3507C49.2586 22.3978 49.1775 22.3407 49.1443 22.2541C48.9785 21.8284 48.7408 21.4286 48.4257 21.0526C48.0756 20.6344 47.6315 20.2916 47.0897 20.0244C46.548 19.7572 45.927 19.6227 45.2286 19.6227C44.3773 19.6227 43.6034 19.8383 42.905 20.2695C42.2066 20.7025 41.6428 21.2922 41.219 22.0385C40.7933 22.7848 40.5814 23.6158 40.5814 24.5353C40.5814 25.4548 40.7933 26.2877 41.219 27.034C41.6446 27.7803 42.2066 28.3699 42.905 28.8011C43.6052 29.2323 44.3791 29.4479 45.2286 29.4479C46.2697 29.4479 47.1358 29.1807 47.8287 28.6463C48.4791 28.1433 48.9508 27.5389 49.2438 26.8313C49.277 26.7484 49.3562 26.6931 49.4465 26.6931Z" fill="#DE3341"/>
<path d="M53.3493 17.2807H55.4666C55.5882 17.2807 55.6877 17.3802 55.6877 17.5018V31.567C55.6877 31.6886 55.5882 31.7881 55.4666 31.7881H53.3493C53.2277 31.7881 53.1282 31.6886 53.1282 31.567V17.5018C53.1282 17.3802 53.2277 17.2807 53.3493 17.2807Z" fill="#DE3341"/>
<path d="M74.2435 25.0789C75.0598 25.2798 75.7342 25.4935 76.2686 25.7165L76.2668 25.7202C76.7993 25.9431 77.2636 26.2859 77.658 26.7465C78.0505 27.209 78.2476 27.8134 78.2476 28.5634C78.2476 29.2415 78.0763 29.8349 77.7317 30.3471C77.3871 30.8594 76.8767 31.2629 76.2022 31.5578C75.5278 31.8544 74.706 32.0019 73.7773 32.0019C72.8486 32.0019 72.0378 31.8397 71.3413 31.5154C70.6447 31.1911 70.1048 30.747 69.7179 30.185C69.3825 29.6967 69.1761 29.1678 69.1006 28.6021C69.0821 28.4676 69.1853 28.3478 69.3198 28.3478H71.4315C71.5292 28.3478 71.6195 28.4086 71.6453 28.5026C71.7595 28.9043 71.9825 29.2231 72.3142 29.4608C72.6864 29.728 73.1839 29.8607 73.8012 29.8607C74.4185 29.8607 74.8829 29.7483 75.1925 29.5253C75.502 29.3023 75.6568 29.0241 75.6568 28.6924C75.6568 28.4197 75.5499 28.1857 75.3399 27.9903C75.128 27.7969 74.8718 27.6384 74.5696 27.5149C74.2674 27.3933 73.8289 27.2662 73.2521 27.1372C72.4524 26.9216 71.7872 26.7005 71.2602 26.4775C70.7332 26.2545 70.2854 25.9229 69.9205 25.4825C69.5557 25.042 69.3733 24.4616 69.3733 23.7411C69.3733 23.122 69.5391 22.5636 69.869 22.0661C70.2006 21.5686 70.6853 21.1761 71.3247 20.8868C71.9641 20.5975 72.7417 20.4538 73.6557 20.4538C74.4849 20.4538 75.2256 20.6122 75.8798 20.9292C76.5339 21.2461 77.0499 21.6755 77.4295 22.2154C77.7593 22.6853 77.9657 23.2012 78.0523 23.7632C78.0726 23.8977 77.9694 24.0212 77.833 24.0212H75.7103C75.6126 24.0212 75.5223 23.9567 75.4983 23.8609C75.4117 23.5034 75.233 23.2141 74.9621 22.993C74.6525 22.7424 74.2103 22.6152 73.6336 22.6152C73.0844 22.6152 72.6661 22.7166 72.3787 22.9174C72.0894 23.1201 71.9457 23.3652 71.9457 23.6527C71.9457 23.9125 72.0433 24.1244 72.2405 24.2902C72.4377 24.4561 72.6809 24.5924 72.9683 24.7012C73.2558 24.808 73.6815 24.9352 74.2435 25.0789Z" fill="#DE3341"/>
<path fill-rule="evenodd" clip-rule="evenodd" d="M84.8573 20.4501C87.1478 20.4501 88.8836 21.6847 89.7736 23.1754H89.7773C89.9855 23.5255 90.7189 24.8523 90.507 26.5457C90.4757 26.7944 90.4296 27.0082 90.3854 27.1796C90.3596 27.2772 90.273 27.3436 90.1716 27.3436H81.7432C81.8888 27.8945 82.5153 29.7059 84.861 29.7059C85.9906 29.7059 86.8511 29.2212 87.2491 28.7716C87.297 28.7164 87.3671 28.6832 87.4426 28.6832H89.7552C89.921 28.6832 90.0297 28.8601 89.9523 29.0057C89.4474 29.9694 88.515 30.9294 87.2012 31.5172C86.4899 31.836 85.7086 31.9982 84.8831 31.9982C83.807 31.9982 82.8083 31.7402 81.9109 31.2353C80.3796 30.3729 78.981 28.6777 78.981 26.2232C78.9828 25.7533 79.0492 24.2515 80.0995 22.8308C80.2414 22.6392 80.8513 21.8413 81.9311 21.224C82.8285 20.7099 83.8125 20.4501 84.8573 20.4501ZM84.8573 22.7221C83.2487 22.7221 82.0325 23.778 81.6934 25.2687H87.8812C87.7909 24.8301 87.1533 22.7221 84.8573 22.7221Z" fill="#DE3341"/>
<path fill-rule="evenodd" clip-rule="evenodd" d="M56.8265 26.2158C56.8265 23.028 59.4117 20.4427 62.5996 20.4427C65.7874 20.4427 68.3727 23.028 68.3727 26.2158C68.3727 29.4037 65.7874 31.989 62.5996 31.989C59.4117 31.989 56.8265 29.4037 56.8265 26.2158ZM59.3565 26.2158C59.3565 28.0069 60.8085 29.459 62.5996 29.459C64.3907 29.459 65.8427 28.0069 65.8427 26.2158C65.8427 24.4248 64.3907 22.9727 62.5996 22.9727C60.8085 22.9727 59.3565 24.4248 59.3565 26.2158Z" fill="#DE3341"/>
</g>
<defs>
<clipPath id="clip0_3246_173">
<rect width="102.025" height="32.0037" fill="white" transform="translate(0 -0.00183105)"/>
</clipPath>
</defs>
</svg>
